<svg width="280" height="204" viewBox="0 0 280 204" fill="none" xmlns="http://www.w3.org/2000/svg">
<path d="M180 23.3333V16.6667C180 7.46333 172.54 0 163.333 0H116.667C107.463 0 100 7.46333 100 16.6667V23.3333H133.333V30H100V50H113.333V56.6667H100V63.3333C100 72.5367 107.463 80 116.667 80H163.333C172.54 80 180 72.5367 180 63.3333V56.6667H153.333V50H180V30H163.333V23.3333H180ZM126.667 60C126.667 61.84 125.177 63.3333 123.333 63.3333C121.49 63.3333 120 61.84 120 60V46.6667C120 44.8267 121.49 43.3333 123.333 43.3333C125.177 43.3333 126.667 44.8267 126.667 46.6667V60ZM136.667 60C136.667 61.84 135.177 63.3333 133.333 63.3333C131.49 63.3333 130 61.84 130 60V46.6667C130 44.8267 131.49 43.3333 133.333 43.3333C135.177 43.3333 136.667 44.8267 136.667 46.6667V60ZM146.667 60C146.667 61.84 145.177 63.3333 143.333 63.3333C141.49 63.3333 140 61.84 140 60V46.6667C140 44.8267 141.49 43.3333 143.333 43.3333C145.177 43.3333 146.667 44.8267 146.667 46.6667V60ZM146.667 33.3333C146.667 35.1733 145.177 36.6667 143.333 36.6667C141.49 36.6667 140 35.1733 140 33.3333V20C140 18.16 141.49 16.6667 143.333 16.6667C145.177 16.6667 146.667 18.16 146.667 20V33.3333ZM156.667 33.3333C156.667 35.1733 155.177 36.6667 153.333 36.6667C151.49 36.6667 150 35.1733 150 33.3333V20C150 18.16 151.49 16.6667 153.333 16.6667C155.177 16.6667 156.667 18.16 156.667 20V33.3333Z" fill="white"/>
<path d="M38.4 184.28C33.4133 184.28 28.7067 183.4 24.28 181.64C19.8533 179.853 15.9467 177.4 12.56 174.28C9.17333 171.133 6.52 167.493 4.6 163.36C2.68 159.227 1.72 154.8 1.72 150.08C1.72 145.333 2.68 140.893 4.6 136.76C6.54667 132.6 9.2 128.96 12.56 125.84C15.9467 122.693 19.84 120.24 24.24 118.48C28.6667 116.693 33.36 115.8 38.32 115.8C42.3467 115.8 46.2 116.36 49.88 117.48C53.56 118.6 56.68 120.053 59.24 121.84L52.68 134.96C51.0533 133.733 49.0533 132.76 46.68 132.04C44.3067 131.32 41.8533 130.96 39.32 130.96C36.3867 130.96 33.6533 131.44 31.12 132.4C28.5867 133.36 26.36 134.707 24.44 136.44C22.5467 138.173 21.0667 140.2 20 142.52C18.96 144.813 18.44 147.32 18.44 150.04C18.44 152.76 18.96 155.28 20 157.6C21.0667 159.893 22.5467 161.907 24.44 163.64C26.36 165.373 28.5867 166.72 31.12 167.68C33.6533 168.64 36.3867 169.12 39.32 169.12C41.8533 169.12 44.3067 168.76 46.68 168.04C49.0533 167.32 51.0533 166.347 52.68 165.12L59.24 178.24C56.7867 179.947 53.7333 181.387 50.08 182.56C46.4267 183.707 42.5333 184.28 38.4 184.28ZM83.7981 184.28C80.0381 184.28 76.6248 183.347 73.5581 181.48C70.4915 179.587 68.0515 177 66.2381 173.72C64.4248 170.413 63.5181 166.653 63.5181 162.44C63.5181 158.36 64.3848 154.693 66.1181 151.44C67.8515 148.16 70.2381 145.56 73.2781 143.64C76.3181 141.72 79.8248 140.76 83.7981 140.76C86.3848 140.76 88.8381 141.2 91.1581 142.08C93.5048 142.96 95.4915 144.2 97.1181 145.8V142.04H111.718V183H97.1181V178.76C95.1981 180.573 93.1181 181.947 90.8781 182.88C88.6648 183.813 86.3048 184.28 83.7981 184.28ZM88.1981 171.92C90.0115 171.92 91.6115 171.52 92.9981 170.72C94.3848 169.893 95.4648 168.773 96.2381 167.36C97.0115 165.947 97.3981 164.333 97.3981 162.52C97.3981 160.707 96.9981 159.093 96.1981 157.68C95.4248 156.267 94.3448 155.16 92.9581 154.36C91.5715 153.533 89.9848 153.12 88.1981 153.12C86.4381 153.12 84.8515 153.533 83.4381 154.36C82.0515 155.16 80.9448 156.267 80.1181 157.68C79.3181 159.093 78.9181 160.707 78.9181 162.52C78.9181 164.307 79.3181 165.92 80.1181 167.36C80.9181 168.773 82.0115 169.893 83.3981 170.72C84.8115 171.52 86.4115 171.92 88.1981 171.92ZM125.158 183V114.2H139.758V183H125.158ZM172.444 184.28C169.298 184.28 166.324 183.72 163.524 182.6C160.751 181.48 158.298 179.92 156.164 177.92C154.031 175.92 152.351 173.613 151.124 171C149.898 168.36 149.284 165.547 149.284 162.56C149.284 159.707 149.858 156.987 151.004 154.4C152.178 151.787 153.804 149.453 155.884 147.4C157.964 145.347 160.404 143.733 163.204 142.56C166.004 141.36 169.058 140.76 172.364 140.76C175.004 140.76 177.538 141.133 179.964 141.88C182.418 142.6 184.351 143.507 185.764 144.6L180.924 154.44C179.271 153.267 177.191 152.68 174.684 152.68C172.471 152.68 170.618 153.173 169.124 154.16C167.631 155.147 166.511 156.4 165.764 157.92C165.044 159.44 164.684 160.973 164.684 162.52C164.684 164.307 165.098 165.947 165.924 167.44C166.751 168.933 167.924 170.133 169.444 171.04C170.964 171.92 172.738 172.36 174.764 172.36C176.044 172.36 177.218 172.2 178.284 171.88C179.351 171.533 180.231 171.107 180.924 170.6L185.764 180.44C184.324 181.507 182.404 182.413 180.004 183.16C177.604 183.907 175.084 184.28 172.444 184.28ZM216.011 184.28C208.064 184.28 202.331 182.773 198.811 179.76C195.291 176.747 193.531 171.853 193.531 165.08V142.04H208.131V161.48C208.131 165.507 208.717 168.347 209.891 170C211.091 171.627 213.131 172.44 216.011 172.44C218.917 172.44 220.957 171.627 222.131 170C223.304 168.347 223.891 165.507 223.891 161.48V142.04H238.491V165.08C238.491 171.853 236.731 176.747 233.211 179.76C229.691 182.773 223.957 184.28 216.011 184.28ZM266.03 184.28C261.603 184.28 258.15 182.893 255.67 180.12C253.19 177.32 251.95 173.413 251.95 168.4V153.12H245.99V142.04H251.95V126.68H266.55V142.04H275.11V153.12H266.55V167.32C266.55 168.6 266.803 169.573 267.31 170.24C267.843 170.907 268.617 171.24 269.63 171.24C270.803 171.24 271.963 170.813 273.11 169.96L276.75 181.68C275.203 182.48 273.483 183.107 271.59 183.56C269.697 184.04 267.843 184.28 266.03 184.28Z" fill="white"/>
</svg>
